<svg width="364" height="365" viewBox="0 0 364 365" fill="none" xmlns="http://www.w3.org/2000/svg">
<path d="M292.554 15.0161C300.39 16.8592 310.069 21.4056 316.642 25.9311C318.707 27.3382 317.293 27.2262 318.68 28.2391C321.367 30.2316 324.097 31.7647 326.529 34.0129C327.329 34.7614 325.643 34.7253 326.486 35.4888C331.068 39.6684 335.507 43.4952 339.51 48.3176C358.754 71.4585 367.372 102.237 362.276 131.734C362.161 132.412 362.04 133.087 361.912 133.76C360.102 143.716 355.271 155.032 350.625 164.25C350.087 165.332 351.207 165.127 351.16 165.365C350.337 169.096 349.381 167.151 347.964 169.043C342.297 176.534 335.603 184.326 329.151 190.531C326.392 193.153 330.434 191.982 326.851 193.734C326.603 193.852 326.744 192.514 325.879 193.102C323.935 194.451 320.454 197.258 318.892 198.216C315.896 200.068 315.408 200.382 312.545 202.074C311.549 202.65 310.481 203.211 309.369 203.757L310.573 195.89C313.039 198.592 315.45 201.691 317.8 204.462C318.474 205.256 318.395 203.569 319.54 204.8C320.704 206.023 323.179 209.724 323.773 211.116C324.385 212.497 323.4 212.364 323.394 212.678C323.314 215.231 327.51 218.617 327.848 219.217C334.115 229.511 336.135 239.934 337.756 250.937C338.991 259.332 339.423 268.508 338.399 276.559C338.246 277.786 338.068 278.976 337.865 280.154C336.459 288.172 334.152 295.093 331.164 302.658C330.795 303.573 332.286 302.935 331.829 304.06C326.931 316.035 319.409 326.903 309.805 335.388C308.842 336.233 309.311 334.372 308.312 335.165C302.227 340.223 291.472 345.418 289.549 351.353C284.871 353.903 278.887 356.481 274.155 357.288C271.11 357.796 273.522 355.804 270.182 357.433C269.421 357.79 270.753 358.356 269.577 358.822C264.609 360.779 258.858 361.773 253.703 362.98C252.654 363.228 253.054 364.028 252.769 364.22C250.324 365.812 245.825 364.081 244.912 363.958C237.809 363.152 232.713 363.295 226.211 362.376C224.838 362.168 226.055 363.302 225.183 363.37C225.096 363.377 224.988 363.372 224.854 363.355C217.249 362.35 209.502 360.08 202.769 356.757C201.275 356.013 203.061 355.703 202.373 355.301C199.382 353.524 197.904 354.855 195.074 352.974C194.482 352.576 195.222 352.022 195.15 351.882C194.062 349.696 191.586 350.613 191.103 350.384C185.107 347.551 182.904 343.373 177.949 339.639C177.353 339.181 177.964 341.09 176.323 339.74C168.111 332.944 160.95 324.139 155.929 314.583L162.135 315.535C159.419 317.831 156.584 319.926 153.686 321.799C151.864 322.965 152.649 321.416 152.48 321.418C149.828 321.455 149.817 323.904 149.262 324.363C144.895 327.906 139.565 328.766 137.17 332.545C119.703 339.943 100.206 343.371 81.6607 339.695C77.1055 338.8 72.6737 337.499 68.4104 335.76C68.1377 335.651 68.9288 334.841 68.3879 334.628C61.9147 331.925 62.7351 333.794 57.5935 333.76C56.263 333.732 53.9601 330.093 53.7757 329.795C53.0225 328.723 54.7581 327.918 54.469 327.639C52.1378 325.373 50.2626 330.024 46.4316 327.8C46.3186 327.723 47.2766 327.233 47.0084 326.969C46.183 326.147 45.0366 325.863 44.2719 324.998C42.5316 322.991 43.1898 320.571 39.33 319.436C38.8421 319.278 37.7138 322.017 34.7324 319.45C33.5181 318.47 28.3546 313.861 27.1745 312.307C25.9552 310.8 27.5318 311.12 27.4618 310.993C24.8037 306.447 26.5192 307.516 26.1897 304.477C25.9338 301.455 23.1568 304.669 22.1266 304.155C21.083 303.643 19.5909 300.051 19.3612 299.108C19.1119 298.167 20.2365 298.756 19.9292 297.989C17.9726 292.902 16.8766 297.222 15.326 296.094C11.6732 293.32 12.7456 288.824 11.3606 285.31C10.9839 284.344 10.711 285.414 10.2515 284.607C8.46331 281.373 8.50903 278.992 6.26644 275.369C5.90041 274.8 3.02492 272.095 3.7685 269.576C3.87789 269.224 4.85603 269.862 4.61457 268.311C4.24339 265.993 3.51499 261.885 2.86555 259.463C2.38 257.667 1.44396 259.972 1.48288 257.588C1.51221 256.536 2.5208 258.325 2.52208 256.37C2.5001 254.428 2.04076 249.544 1.97043 247.67C1.87505 245.811 0.943102 246.858 0.871296 246.711C0.447971 245.808 -0.0230758 242.151 0.00070715 241.83C0.0558445 237.373 0.539739 233.064 1.34062 228.836C3.49432 217.577 7.746 207.339 12.8766 197.169C13.4373 196.072 12.1454 196.29 12.2217 196.118C13.9701 192.206 14.6483 196.459 16.9168 194.441C14.9284 193.721 16.1186 192.421 17.5833 189.838C18.2954 188.594 17.1954 188.781 17.2002 188.626C17.4161 186.155 19.6077 185.876 20.0867 185.774C21.8726 185.371 21.7119 183.313 22.9371 183.07C24.1468 182.843 23.6751 185.24 25.4414 183.094C25.3853 182.009 22.5323 182.365 23.6978 180.508C27.9822 173.213 41.0342 164.461 46.8105 161.457C48.8096 160.298 50.3548 159.46 51.6607 158.772L51.1621 162.031C49.2886 160.071 48.1113 158.758 46.6447 156.766C42.6782 151.134 43.1483 153.984 40.0512 150.863C37.0333 147.633 41.2044 147.415 41.4905 146.484C41.8037 145.572 40.7952 145.459 40.7577 144.612C40.7274 143.773 41.9966 144.828 41.2321 143.301C40.4535 141.805 37.0157 138.385 36.0381 138.173C33.9487 137.771 33.2997 140.548 31.8059 136.007C31.7254 135.746 32.9405 136.144 32.591 135.169C29.8069 127.459 27.3242 119.328 26.5718 111.259C26.4726 110.154 27.6623 110.953 27.6188 110.313C27.3034 103.664 25.9393 106.272 23.6348 102.721C26.3062 103.331 27.5991 101.191 27.5255 96.2472C27.52 93.2572 26.4019 93.772 25.6578 91.7737C25.4314 91.1722 26.3216 89.0573 25.8235 88.6382C24.2026 87.2236 22.02 89.131 23.3433 83.837C23.407 83.6077 24.2659 84.4593 24.4169 83.661C24.6842 82.2751 24.7792 81.2111 24.7795 80.2668C24.8007 77.7081 24.0201 76.0962 24.8228 71.9535C25.6464 67.49 29.2086 60.22 31.4803 55.7085C34.0935 56.9466 35.4082 52.5024 34.5748 49.8533C36.171 46.9898 37.8993 43.8766 39.8933 41.3985C40.5784 40.5483 40.8778 41.6138 41.0299 41.5506C43.3696 40.6414 42.6065 38.394 42.9706 37.7721C46.9906 31.1723 52.3227 27.6526 56.8488 21.7908C57.0081 21.5886 56.0214 19.7495 58.4927 19.6287C58.6521 19.6326 57.3684 21.8608 60.0779 19.7532C62.8059 17.6194 68.6461 14.8276 72.3021 11.7021C73.1661 10.9371 74.9954 8.0603 77.6949 8.17999C78.0522 8.19965 77.9998 8.86961 78.5433 8.96485C80.2772 9.2733 80.1495 7.07923 82.4035 7.99033C84.6647 8.90872 88.2043 8.81181 92.2507 6.28968C92.3788 6.21387 92.9579 4.33166 94.404 3.95279C96.7033 3.34152 100.05 2.90252 102.468 2.44957C103.627 2.23033 102.706 1.37751 102.905 1.32232C110.739 -0.587185 116.646 -0.0955462 125.111 0.728783C126.571 0.868769 130.859 0.00295031 133.754 1.28923C133.901 1.35363 134.043 1.42321 134.181 1.49828C137.248 3.25178 133.139 7.37898 140.445 7.78207C143.282 7.98516 148.968 3.02609 153.048 8.07525C163.307 11.241 170.958 17.7544 179.727 23.736C180.119 24.0026 182.428 23.6986 183.263 24.5021C184.494 25.6897 184.594 26.9289 185.41 27.8149C188.8 31.5496 192.343 34.6222 195.162 38.6407C196.218 40.1691 195.16 40.1279 196.363 41.9605C197.542 43.7965 199.292 44.4427 200.343 47.3028C200.347 47.3117 200.35 47.3206 200.353 47.3296L200.149 47.2984C202.107 46.0856 205.245 46.3538 207.668 44.7945C206.379 42.9669 207.982 41.7155 210.647 39.1624C211.163 38.6717 210.1 38.4516 210.322 38.1853C211.229 37.0821 212.641 36.9362 213.508 35.8811C213.72 35.6253 213.331 34.9656 213.485 34.7188C214.796 32.5677 218.877 32.3013 219.553 32.3011C222.182 32.2177 222.734 30.8554 224.581 30.5004C226.414 30.1683 224.186 31.7797 226.211 31.1756C230.39 29.9305 235.561 27.9833 239.815 26.9134C241.508 26.4816 240.101 25.7917 240.337 25.7069C243.837 24.5339 247.628 24.9595 249.337 22.6497C252.589 27.5238 251.446 21.7535 256.847 22.3712C257.273 22.429 257.93 24.8757 256.424 25.3512C254.925 25.8283 252.512 25.29 250.472 26.1633C249.969 26.3584 247.539 29.129 247.21 29.3467C244.501 30.9933 243.284 27.4981 243.066 27.329C240.723 25.5839 237.883 28.9824 237.085 29.4248C233.276 31.4233 229.752 32.2354 226.755 34.1976C224.803 35.4899 225.675 37.787 224.08 38.5019C218.871 40.9441 215.168 39.2418 212.266 44.8644C211.673 46.0872 214.184 47.4716 209.606 48.3693C209.328 48.4078 205.64 48.9368 205.084 51.0805C205.016 51.3468 205.539 51.9198 205.362 52.1675C205.247 52.326 205.131 52.4737 205.013 52.6126L198.32 58.5123L194.12 50.9419C193.079 49.5871 192.823 48.2459 191.521 46.7472C190.08 45.0914 188.224 43.2459 186.91 41.1501C186.128 39.8893 186 37.4899 185.784 36.704C185.201 34.4636 182.462 33.9953 182.459 32.2321C182.417 30.4293 185.613 30.9444 183.673 27.8951C182.172 29.2501 180.523 30.5363 178.979 31.8661C173.819 26.826 168.419 21.9932 161.992 18.479C161.196 18.0497 161.474 19.4442 160.614 19.0175C156.997 17.2438 154.099 15.047 150.043 13.829C146.901 12.895 143.176 12.9314 139.876 12.4182C138.807 10.3587 135.59 9.65577 132.544 9.226C131.531 9.07926 130.54 8.95594 129.641 8.79703C128.371 8.57789 128.528 7.9779 127.62 7.6874C124.188 6.65179 125.677 8.83312 124.716 9.08443C120.665 10.262 120.424 5.60531 115.458 5.88532C115.18 5.8885 112.198 8.55494 111.817 8.75912C109.23 10.0191 111.289 7.94268 109.567 7.94788C106.432 7.9926 104.129 7.75923 100.678 9.2526C99.6574 9.69371 97.588 11.7774 95.2877 11.2263C94.9826 11.1544 94.8959 10.3316 94.67 10.3491C90.5763 10.7819 91.3052 13.2903 89.5281 14.8666C87.771 16.4404 83.9457 16.2155 83.069 16.0787C80.8139 15.6882 84.1315 14.9574 84.175 14.8112C84.6515 12.9203 82.3746 14.2006 80.53 14.9785C79.1591 12.8473 76.6715 14.3096 78.6277 15.8073C78.8409 15.9672 80.1169 15.0507 80.53 14.9785C80.0336 17.9666 77.6609 19.5534 73.5967 19.3583C71.6954 19.2946 72.2497 17.3626 68.4433 20.4892C66.7453 21.9375 68.4445 22.8444 67.1879 24.3572C64.36 27.7847 59.077 30.3 56.1236 33.7847C55.0647 35.0348 56.8432 34.5283 56.1539 35.4013C54.3544 37.7129 52.1374 39.2353 50.6224 41.8035C50.4884 42.0354 51.665 42.1219 51.1267 42.851C47.1156 48.3931 43.4871 53.2431 40.5311 59.8385C39.0707 63.0128 37.5168 69.0604 36.537 72.5056C35.686 75.3437 34.632 78.4865 33.8143 81.6578C32.9119 85.1225 32.3058 88.5872 32.3748 91.4212C32.4833 94.949 33.5207 94.1819 34.188 95.6622C35.4691 98.4556 33.5428 103.589 33.2885 104.355C33.2685 104.383 32.7622 101.393 32.4016 103.048C31.4357 104.092 33.2815 104.325 33.2885 104.355C33.0532 104.83 33.7032 110.844 34.1806 111.975C34.4097 112.592 35.2566 112.049 35.3591 112.37C37.7925 120.001 40.6513 127.314 43.983 134.623C44.0321 134.757 43.0039 135.055 43.1329 135.367C44.9472 139.751 47.6942 141.656 50.5003 144.312C53.3329 146.968 55.0173 149.361 55.1905 152.271C56.0829 153.132 57.0096 154.262 57.9122 155.427L64.7426 162.671L56.1273 167.093C54.2664 167.828 52.3584 168.51 51.0178 169.015C48.6832 169.905 49.5406 171.819 49.3878 171.963C44.7224 176.715 41.1143 178.141 36.0929 182.816C33.6959 185.015 29.7141 190.1 27.8869 193.084C26.4191 195.418 25.0997 196.546 24.0234 198.875C23.8793 199.189 24.8357 199.366 24.8111 199.474C24.3082 202.429 23.0891 200.153 22.447 200.459C20.1435 201.597 18.7619 202.452 17.7666 206.108C17.5244 206.97 19.4474 210.506 19.0789 211.945C18.5832 213.843 17.7732 212.746 17.3239 214.776C17.2873 214.95 17.9579 215.153 17.5193 216.334C15.8788 220.795 14.3506 225.717 13.5183 230.711C13.3249 231.865 13.1684 233.014 13.0532 234.151C12.9692 234.979 14.1972 234.046 14.101 235.233C13.6522 240.818 13.6274 246.918 13.6896 252.406C13.7033 253.761 12.8318 253.009 12.6324 253.328C11.4297 255.322 13.8723 257.597 13.9857 257.985C16.7383 267.593 17.5682 275.598 23.2699 284.301C23.5844 284.809 27.5969 287.304 27.0926 289.893C27.0504 290.059 26.533 292.758 28.6084 293.357C28.7364 293.389 28.8413 291.862 29.9769 293.571C31.1258 295.291 33.6842 297.409 34.7864 300.22C35.1216 301.097 35.223 304.044 38.2572 304.824C38.4821 304.918 43.7799 305.072 43.3626 307.797C43.2962 308.24 41.4707 310.078 44.8408 311.064C45.4832 311.237 44.9424 310.12 46.4371 310.808C48.7134 311.841 51.0466 314.253 54.2113 314.816C54.7732 314.923 57.4973 314.518 58.4401 316.474C58.5926 316.783 57.7288 317.289 58.5264 317.806C62.341 320.271 66.9272 321.548 71.1169 323.476C72.6095 324.152 71.4091 325.22 72.9745 326.053C74.5435 326.895 77.9048 328.061 79.8214 327.782C81.7155 327.501 80.1907 325.019 82.826 325.298C83.1639 325.332 83.5021 325.364 83.8405 325.397C94.8544 326.453 105.979 327.131 116.922 324.513C118.579 324.101 117.02 323.73 119.414 323.031C128.432 320.684 141.96 312.433 149.036 308.354C154.876 305.158 149.236 311.291 153.435 308.393C153.869 308.083 154.222 307.668 154.508 307.202L161.386 301.14L165.702 308.919C167.143 310.315 169.398 310.914 169.694 311.257C173.448 315.525 174.999 319.278 178.708 322.829C179.476 323.549 179.525 322.099 180.167 322.709C182.359 324.774 184.35 327.283 186.612 329.09C187.629 329.894 187.944 329.137 188.822 329.926C190.941 331.798 192.764 333.525 194.696 335.667C194.877 335.865 192.888 335.733 194.666 336.931C197.536 338.851 201.015 341.617 204.981 342.597C206.165 342.88 206.892 341.27 208.746 343.369C209.138 343.796 207.721 345.585 211.166 344.888C211.775 344.811 217.132 343.967 219.023 346.084C219.521 346.656 220.708 348.766 222.187 348.797C222.384 348.794 221.833 347.695 223.001 347.845C224.469 348.034 225.954 348.242 227.461 348.428C230.181 348.764 232.934 349.021 235.655 348.973C236.781 348.947 235.164 347.874 236.832 347.859C241.39 347.817 247.061 347.783 251.537 347.442C253.182 347.32 252.18 348.3 252.309 348.372C254.48 349.523 255.297 347.353 255.892 347.122C259.663 345.671 262.818 345.773 266.266 344.374C267.21 343.986 266.223 343.329 266.387 343.185C268.073 341.729 267.173 343.835 268.487 343.559C272.176 342.774 275.997 340.979 279.271 339.078C280.471 338.377 278.584 338.163 279.654 337.546C285.952 333.862 292.084 329.427 297.635 324.868C298.681 324.007 298.663 325.197 298.999 325.136C301.364 324.704 302.008 321.301 302.291 320.706C303.659 317.944 304.94 317.529 306.435 315.343C313.785 304.795 320.286 290.194 322.302 278.109C322.322 277.995 322.343 277.881 322.364 277.768C324.97 262.331 324.306 249.449 318.927 235.26C318.571 234.359 317.876 235.666 317.556 234.904C313.463 225.107 308.142 215.827 300.612 208.238C299.997 207.62 300.086 209.252 299.077 208.3C298.879 208.116 298.677 207.926 298.471 207.731L287.409 196L301.361 188.839C303.68 187.48 306.436 185.896 308.761 184.682C310.016 184.021 308.964 185.843 310.225 185.152C313.165 183.528 316.06 181.345 318.509 178.921C319.543 177.887 317.193 178.557 318.575 177.282C327.927 168.492 334.914 157.98 340.87 146.301C341.271 145.506 343.629 145.503 343.851 143.509C343.318 143.178 342.634 142.961 342.034 142.697C343.41 138.238 344.471 133.708 345.203 129.106C347.438 115.154 346.499 100.669 341.602 87.2069C341.326 86.4576 340.719 88.1486 340.18 86.7157C336.996 78.4238 332.447 71.1443 327.585 63.3503C327.091 62.5825 328.991 61.6151 326.956 59.7491C326.611 59.4075 323.603 56.5823 322.525 56.1798C322.377 56.1288 322.227 57.322 321.282 56.4323C315.787 51.259 309.561 46.3941 303.165 42.285C302.132 41.6222 303.765 41.3395 303.025 40.8579C297.705 37.4164 291.04 35.6727 285.467 33.2579C281.697 31.6599 283.559 30.3231 281.731 28.1447C281.469 27.8302 278.901 27.3062 278.928 26.2966C278.993 23.7328 280.805 21.2317 280.729 18.4729C280.719 17.8635 276.746 17.8737 279.261 16.8439C279.438 16.7675 282.333 16.7977 283.119 16.4781C283.668 16.2511 282.989 15.0686 284.07 14.8553C285.167 14.6492 286.088 15.7233 287.849 15.6383C289.615 15.5655 289.182 14.2161 292.554 15.0161ZM40.7127 173.683C38.2878 174.403 40.3586 177.354 41.6961 175.139C41.7587 175.03 40.8356 173.646 40.7127 173.683ZM169.807 20.0355C168.142 16.9952 165.111 17.9147 166.268 20.0652C167.36 22.1997 170.287 20.9501 169.807 20.0355ZM193.192 41.2931C192.047 37.6165 187.695 40.3166 190.73 42.6864C190.903 42.826 193.256 41.5058 193.192 41.2931ZM291.975 30.3923C291.962 30.3329 290.16 29.7059 290.105 29.7436C288.817 30.5286 292.363 31.7581 291.975 30.3923ZM220.03 35.0124C218.684 34.9337 216.23 37.2769 217.886 37.3074C219.191 37.3291 221.672 35.1055 220.03 35.0124ZM12.8904 284.45C12.8566 284.509 13.4367 285.784 13.6956 285.621C14.5171 285.099 13.4237 283.495 12.8904 284.45ZM272.842 24.5564C264.926 23.6314 259.721 19.5806 268.907 20.3034C270.546 20.473 265.295 21.4717 267.37 21.947C271.084 22.8148 273.902 20.4341 277.593 22.4059C278.225 22.7439 273.271 24.5901 272.827 24.5608C272.832 24.5593 272.837 24.5579 272.842 24.5564ZM36.9248 171.214C36.8544 171.205 35.3422 172.432 35.3409 172.502C35.2961 174.038 38.3019 171.595 36.9248 171.214ZM73.8089 336.212C73.8791 336.361 78.3742 337.428 78.5373 337.336C81.1851 335.999 72.3093 333.902 73.8089 336.212ZM31.5836 55.6669C31.4129 53.2054 32.4813 50.7242 34.5689 49.8614C33.4917 51.743 32.5313 53.7003 31.5836 55.6669ZM146.243 166.756C147.478 167.589 148.548 169.21 149.193 170.583C149.396 171.013 148.773 171.276 148.892 171.591C149.123 172.207 149.737 172.416 149.925 173.06C149.984 173.275 149.072 173.77 149.151 173.979C149.588 175.123 150.499 175.755 151.104 176.762C154.078 181.721 157.325 186.242 160.457 191.047C161.493 192.632 162.135 195.004 163.604 196.329C163.776 196.484 164.409 195.852 164.493 195.843C165.795 195.732 164.221 196.604 164.289 197.101C164.565 199.068 165.619 200.69 166.86 201.876C167.39 202.38 168.424 200.788 168.025 201.944C167.999 202.023 167.124 202.408 167.153 202.627C167.221 203.12 167.837 203.72 167.969 204.047C168.221 204.679 168.29 204.765 168.632 205.291C169.094 206.016 169.271 207.122 169.953 207.773C170.102 207.91 170.763 207.163 171.072 207.336C171.382 207.509 171.77 208.252 171.732 208.611C171.694 208.97 170.994 209.281 170.875 209.417C169.867 210.552 172.088 210.258 172.198 210.338C174.134 211.781 174.178 214.041 175.273 215.842C176.065 217.142 177.189 218.364 177.918 219.64L169.74 218.386C169.798 218.334 169.857 218.282 169.915 218.232C171.306 217.054 172.802 216.417 174.07 215.186C174.205 215.057 173.294 214.35 173.458 214.19C175.199 212.492 177.123 211.018 179.469 210.072C179.705 209.978 180.098 210.943 180.371 210.895C182.031 210.581 185.045 210.673 183.042 206.741C183.932 206.25 184.999 205.635 186.24 205.778C187.039 205.87 187.259 207.068 187.534 206.272C187.597 206.094 186.855 205.469 186.994 205.257C187.582 204.367 188.645 203.947 189.149 202.957C189.251 202.754 188.697 202.107 188.652 201.95C188.3 200.665 190.173 201.826 190.402 201.843C192.135 201.942 192.661 201.02 193.687 200.316C193.925 200.153 192.983 199.425 193.189 199.234C194.269 198.26 195.554 197.476 197.004 197.09C197.328 197.006 197.643 197.97 197.825 197.971C198.623 197.969 197.705 196.372 198.454 196.342C198.611 196.333 199.017 197.064 199.088 197.126C200.209 198.098 199.34 196.232 199.397 196.139C200.085 194.934 201.923 196.26 202.751 195.355C202.85 195.244 202.001 194.542 202.314 194.285C204.399 192.568 206.965 191.285 209.665 190.624C210.084 190.52 210.245 191.348 210.318 191.418C211.469 192.5 210.64 190.616 210.716 190.48C211.338 189.456 213.059 190.424 212.441 187.965C215.782 186.754 218.485 184.454 221.873 183.419L220.98 189.254C220.425 188.406 219.957 187.478 219.625 186.429C219.604 186.37 220.4 185.748 220.356 185.636C219.834 184.27 218.883 185.537 216.873 186.191C216.366 186.353 217.578 184.271 217.662 184.113C217.967 183.526 219.217 182.673 219.254 182.536C219.535 181.447 215.979 184.888 215.411 184.276C215.4 184.251 216.143 183.714 216.162 183.601C216.224 183.25 215.813 183.337 215.9 182.969C216.106 182.121 217.768 180.376 216.24 180.775C216.043 180.828 214.061 182.821 213.66 182.18C213.502 181.924 212.591 180.979 212.483 180.583C212.375 180.188 213.219 179.776 213.231 179.73C213.474 178.202 214.092 178.152 215.098 176.617C216.102 175.088 213.03 177.964 212.545 178.122C212.06 178.279 212.329 177.088 212.474 176.73C212.617 176.372 213.195 176.161 213.239 175.916C213.522 174.305 211.362 176.938 210.632 177.113C208.902 177.526 210.859 175.015 210.618 174.257C210.552 174.051 210.115 174.635 209.949 174.541C209.298 174.164 209.772 173.215 208.572 173.169C208.378 173.162 206.515 173.854 207.308 172.652C207.423 172.48 208.131 172.116 208.074 171.773C207.99 171.26 207.611 170.527 207.106 170.316C206.732 170.16 205.994 171.284 206.02 170.684C206.033 170.417 206.848 170.234 206.824 169.772C206.8 169.312 206.181 168.591 205.935 168.323C205.69 168.057 205.052 168.816 204.983 168.834C204.579 168.929 203.778 168.672 203.741 168.622C201.715 166.243 201.292 162.975 199.075 160.865C198.902 160.698 198.168 161.43 198.133 161.411C197.307 161.006 199.885 159.918 200.291 158.927C198.657 160.215 198.765 159.724 198.246 159.394C197.995 159.236 197.429 159.828 197.348 159.856C196.115 160.238 197.231 159.083 197.452 158.836C198.261 157.925 196.948 158.502 197.488 157.891C198.025 157.285 199.221 156.95 198.894 156.516C198.198 156.822 196.847 158.279 196.349 158.121C194.459 157.524 194.039 154.226 193.472 153.094C192.899 151.96 192.561 151.697 192.38 150.936C192.057 149.562 191.119 150.761 190.113 150.429C189.106 150.092 192.305 148.498 192.881 147.984C193.458 147.472 192.731 147.793 193.005 147.445C193.28 147.097 193.883 147.075 193.834 146.708C193.785 146.343 192.148 146.303 191.41 146.629C189.847 147.323 188.575 148.63 188.617 147.532C188.62 147.469 189.499 147.111 189.473 146.893C189.239 145.18 188.419 143.771 188.151 142.103C188.116 141.874 189.103 141.5 189.093 141.36C188.992 139.907 187.733 141.21 185.694 141.592C187.999 140.401 189.155 139.252 188.671 138.402C188.38 137.89 187.458 138.551 186.576 138.623C186.31 138.645 186.769 137.891 186.272 138.093C185.043 138.589 183.897 139.464 183.475 139.314L188.952 139.669C188.957 139.817 188.831 139.938 188.522 140.025C188.465 140.039 187.804 139.339 187.661 139.428C186.735 139.997 188.085 141.222 187.542 142.235C187.114 143.034 185.261 143.502 184.471 144.119C182.3 142.181 182.204 143.292 183.434 144.921C182.942 145.34 182.555 145.925 181.93 146.183C181.716 146.271 181.199 145.591 181.115 145.548C179.802 144.857 181.025 146.401 180.983 146.555C180.477 148.151 178.581 147.951 178.563 149.972C178.563 150.044 179.9 151.564 178.603 150.76C178.515 150.702 178.223 149.712 177.688 150.121C177.147 150.536 175.507 150.576 175.441 151.891C175.427 152.206 176.085 153.818 174.895 153.154C174.735 153.063 174.403 152.583 174.125 152.397C173.241 151.804 174.461 153.452 173.076 152.353C171.69 151.256 170.352 150.691 170.426 152.187C170.427 152.232 171.294 153.618 171.053 153.783C170.668 154.046 169.948 154.196 169.582 154.502C169.405 154.65 170.148 155.344 170.128 155.384C169.25 156.803 167.811 156.779 166.252 157.45C165.967 157.57 166.056 159.205 164.943 158.667C163.728 158.075 161.402 153.676 160.906 155.461C160.717 156.167 163.624 161.773 160.909 159.685C159.62 161.513 157.119 161.131 155.934 163.182C155.881 163.273 156.522 164.927 156.318 165.02C156.016 165.153 155.442 164.543 155.211 164.616C154.235 164.901 153.801 165.953 152.912 166.321C152.578 166.461 152.282 165.66 151.886 165.823C151.485 165.989 151.759 167.107 150.994 166.906C150.419 166.749 148.964 164.945 148.341 164.97C149.351 166.973 148.99 167.109 148.617 167.962C148.545 168.127 149.03 168.757 149.014 168.871C148.955 169.351 148.445 168.883 148.416 169.387C148.408 169.508 148.746 170.195 148.759 170.334C148.882 171.533 147.467 170.304 147.234 170.083C146.322 169.258 146.568 170.244 146.052 169.991C145.537 169.737 145.781 169.003 145.29 168.933C144.286 168.782 143.347 169.343 142.563 169.645C142.24 169.775 142.865 170.619 142.828 170.659C142.26 171.188 141.205 170.45 141.599 172.489C139.146 167.801 141.413 173.121 140.037 172.529C139.93 172.479 138.938 170.193 139.083 169.743C139.232 169.293 139.941 169.849 140.109 169.164C140.15 169.003 139.783 166.63 139.791 166.473C139.886 165.234 141.428 168.621 141.539 168.797C142.751 170.678 142.391 168.091 142.478 167.862C142.919 166.795 143.757 166.985 144.154 166.171C144.414 165.643 143.394 163.428 143.737 163.347C144.88 163.07 146.762 165.932 146.425 162.796C146.346 162.129 144.92 159.868 146.615 161.35C146.717 161.447 148.174 162.848 147.92 161.609C147.888 161.454 147.522 160.769 147.543 160.683C147.69 160.127 148.215 160.547 148.456 160.079C148.703 159.607 148.924 158.98 149.484 158.968C149.817 158.962 150.872 160.027 151.168 160.266C152.026 160.951 151.567 159.284 152.406 160.225C153.257 161.167 153.761 163.056 154.767 163.397C153.767 161.645 152.768 159.83 151.773 158.062C153.038 157.399 154.598 157.208 155.776 156.349C155.92 156.241 155.182 155.426 155.319 155.288C155.901 154.71 156.921 154.966 157.443 154.245C157.85 153.681 157.785 152.334 158.164 151.718C159.821 153.378 160.199 152.152 160.908 151.897C161.158 151.805 161.507 152.314 161.774 152.368C162.775 152.556 161.304 151.105 161.264 150.736C161.082 149.164 163.903 152.822 164.616 152.136C164.659 152.098 163.646 149.771 163.616 149.6C163.425 148.483 164.212 150.222 164.59 150.157C165.281 150.039 165.996 150.222 166.105 149.207C166.138 148.906 165.554 147.403 166.624 148.058C166.765 148.143 167.261 148.789 167.325 148.798C168.446 148.899 166.817 146.926 166.593 145.982C166.365 145.041 168.031 145.933 168.474 146.222C169.616 146.972 168.629 146.832 168.698 146.943C169.522 148.261 169.74 147.724 170.118 147.565C171.812 149.414 172.134 148.929 170.505 147.39C170.327 147.223 170.253 147.599 170.118 147.565C168.757 145.487 168.97 144.88 171.003 146.14C171.956 146.728 172.585 147.858 172.979 146.872C173.157 146.425 171.861 145.273 171.815 144.673C171.705 143.307 173.609 143.71 174.065 142.899C174.228 142.607 173.341 142.157 173.428 141.936C173.651 141.352 174.511 141.489 174.653 140.821C174.665 140.759 173.866 140.163 173.981 140.026C174.827 138.983 176.088 138.555 177.032 137.514C177.492 137.009 177.861 135.74 178.388 135.273C179.095 134.645 180.477 134.345 181.241 133.737L188.118 126.312L191.888 134.428C191.973 134.714 192.101 134.958 192.295 135.133C192.851 135.639 193.624 135.002 194.36 134.923C195.782 134.763 194.304 136.852 194.068 137.162C194.06 137.173 193.543 136.763 193.276 137.306C192.467 138.014 194.061 137.159 194.068 137.162C193.914 137.362 194.359 138.534 194.649 138.644C194.806 138.704 195.568 138.153 195.634 138.193C197.204 139.157 198.268 140.413 198.79 142.047C198.79 142.082 197.882 142.608 197.893 142.683C198.02 143.749 199.435 143.575 200.504 143.82C201.573 144.067 201.701 144.723 200.462 146.11C200.981 146.484 200.798 147.641 200.677 148.323C200.556 149.006 202.284 147.918 202.341 147.931C204.17 148.324 203.647 149.624 204.306 150.883C204.615 151.484 205.624 152.395 206.227 152.851C206.706 153.21 206.519 153.769 207.076 154.016C207.151 154.049 207.844 153.457 207.885 153.454C209.108 153.287 207.147 154.368 206.898 154.699C205.992 155.905 205.537 156.584 206.534 156.792C206.764 156.842 209.634 155.344 209.971 155.483C210.405 155.668 209.394 156.231 209.874 156.408C209.914 156.424 210.475 155.993 210.609 156.223C211.236 157.283 211.722 158.597 212.561 159.562C212.674 159.695 213.422 158.831 213.599 159.011C214.426 159.858 215.191 160.891 215.5 162.114C215.573 162.418 214.851 162.772 214.707 162.966C213.846 164.146 215.779 163.276 215.864 163.319C217.952 164.325 217.555 166.75 219.623 167.816C219.74 167.874 221.988 167.12 220.822 168.653C220.745 168.755 219.547 170.319 220.774 169.72C220.85 169.682 221.438 168.845 221.644 169.236C221.851 169.628 222.804 169.71 222.378 170.875C222.244 171.242 221.102 172.855 222.622 172.255C222.728 172.214 225.882 170.538 224.31 172.366C224.051 172.666 222.136 174.325 223.55 173.952C223.823 173.878 224.085 173.327 224.572 173.339C225.32 173.354 225.282 174.316 226.539 174.016C226.761 173.962 228.337 173.136 227.637 174.297C227.528 174.48 226.833 174.974 226.899 175.184C227.212 176.186 228.303 176.518 228.543 177.616C228.63 178.005 227.522 178.823 227.506 179.335C227.489 179.847 227.739 180.613 228.448 180.447C229.157 180.28 230.435 178.47 230.947 178.746C231.11 178.834 231.265 178.929 231.414 179.031L241.179 191.089L228.771 196.296C227.016 197.735 224.546 197.835 222.513 198.8C222.189 198.954 222.834 199.482 222.385 199.757C220.725 200.774 218.241 203.109 215.939 202.589C214.087 202.174 215.013 200.414 213.842 200.505C213.274 200.553 214.154 202.989 214.095 203.12C213.528 204.432 212.237 203.925 211.529 204.791C211.383 204.969 212.12 205.715 211.991 205.857C211.555 206.351 210.746 206.331 210.285 206.735C210.079 206.918 210.552 207.545 210.311 207.632C209.737 207.848 209.115 207.866 208.22 207.582C208.138 207.556 207.895 206.545 207.505 206.764C206.875 207.119 205.722 207.025 205.46 208.113C205.383 208.439 206.392 209.919 205.255 209.201C205.017 209.051 203.908 207.202 204.46 209.082C204.548 209.396 205.142 212.038 203.801 211.008C203.447 210.737 202.151 209.497 202.068 209.896C202.061 209.955 202.749 210.646 202.603 210.865C202.082 211.621 201.287 212.065 200.748 212.831C200.606 213.036 201.476 213.634 201.246 213.914C200.614 214.686 199.498 215.196 198.555 215.514C198.206 215.629 197.904 214.825 197.83 214.769C196.625 213.847 197.616 215.568 197.578 215.741C197.322 216.797 196.252 216.449 195.785 217.118C195.655 217.3 196.349 217.952 196.367 218.044C196.518 218.961 195.747 217.425 195.412 217.449C194.469 217.513 193.823 218.113 193.275 218.7C193.074 218.916 194.007 219.568 193.82 219.752C192.727 220.856 191.419 221.78 189.873 222.276C189.58 222.368 189.184 221.607 189.017 221.497C187.846 220.725 188.549 222.518 188.556 222.739C188.584 223.751 187.923 223.338 187.588 223.801C185.967 226.066 183.146 227.884 181.051 229.378C180.791 229.564 180.533 229.743 180.278 229.917L169.313 238.162L164.41 227.484C163.313 224.78 162.616 222.396 160.927 220.053C160.81 219.889 159.973 220.654 159.859 220.52C158.44 218.768 157.606 216.679 156.09 214.989C155.968 214.85 155.235 215.658 155.009 215.455C154.54 215.043 154.161 214.379 154.096 213.684C154.062 213.346 155.038 213.165 154.988 212.835C154.874 212.063 154.507 211.399 153.956 210.904C153.72 210.695 153.096 211.692 152.859 211.373C151.22 209.214 149.524 207.186 149 204.151C148.964 203.943 150.622 202.489 150.042 202.42C149.537 202.763 148.965 203.197 148.436 203.58C145.776 200.641 143.942 197.107 141.48 193.979C141.376 193.848 140.668 194.817 140.463 194.567C139.274 193.123 137.855 191.964 137.461 189.761C137.42 189.543 139.024 188.262 138.417 188.044C138.309 188.006 137.539 187.551 137.061 187.684C136.991 187.707 136.38 188.459 136.178 188.275C135.016 187.192 134.064 185.825 133.413 184.268C133.309 184.015 134.24 183.52 134.172 183.334C133.681 182.014 132.148 181.524 131.953 179.989C131.823 178.957 133.302 177.955 134.234 176.425C134.365 176.209 134.026 175.806 134.729 175.082C136.493 173.258 138.661 171.504 140.521 169.539C140.922 169.115 139.963 169.032 141.271 168.357C141.359 168.312 142.065 168.366 142.499 168.128C142.799 167.963 143.419 167.129 143.853 166.969C144.287 166.81 143.813 167.557 144.387 167.435C144.964 167.31 145.709 166.4 146.243 166.756ZM200.161 151.397C199.618 152.336 202.609 150.351 201.62 150.429C201.568 150.435 200.187 151.35 200.161 151.397ZM156.017 159.503C157.367 160.527 156.477 158.335 155.468 157.526C154.468 156.712 155.61 159.19 156.017 159.503ZM151.218 163.658C152.444 164.405 150.051 159.912 149.91 161.167C149.901 161.238 151.147 163.614 151.218 163.658ZM136.038 177.586C136.068 177.548 135.841 177.243 135.8 177.269C134.839 177.914 135.292 178.52 136.038 177.586ZM146.244 167.653C146.747 168.174 146.981 167.174 146.354 166.528C145.849 166.01 145.622 167.002 146.244 167.653ZM211.942 173.11C211.906 173.15 212.046 173.39 212.273 173.19C213.004 172.546 212.549 172.435 211.942 173.11ZM136.455 171.797C137.96 171.488 140.39 175.062 138.514 175.236C138.175 175.265 138.738 173.734 138.214 173.518C137.29 173.113 137.641 175.782 136.483 174.666C136.282 174.459 136.364 171.809 136.455 171.791C136.455 171.793 136.455 171.795 136.455 171.797ZM196.764 154.065C196.731 154.1 196.909 154.438 196.953 154.419C198.006 153.938 197.649 153.26 196.764 154.065ZM221.042 186.487C220.984 186.573 221.533 187.276 221.62 187.231C223.275 186.263 222.179 184.848 221.042 186.487ZM184.402 144.079C184.98 145.157 184.729 145.638 183.437 144.92C183.776 144.66 184.068 144.351 184.402 144.079Z" fill="#E4E3DD"/>
</svg>
