<svg xmlns="http://www.w3.org/2000/svg" width="15" height="15" viewBox="0 0 15 15" fill="none">
  <path fill-rule="evenodd" clip-rule="evenodd" d="M7.40741 14.8148C11.4985 14.8148 14.8148 11.4985 14.8148 7.40741C14.8148 3.3163 11.4985 0 7.40741 0C3.3163 0 0 3.3163 0 7.40741C0 11.4985 3.3163 14.8148 7.40741 14.8148ZM7.40741 5.55556C7.70209 5.55556 7.98471 5.43849 8.19308 5.23012C8.40145 5.02174 8.51852 4.73913 8.51852 4.44444C8.51852 4.14976 8.40145 3.86714 8.19308 3.65877C7.98471 3.4504 7.70209 3.33333 7.40741 3.33333C7.11272 3.33333 6.83011 3.4504 6.62173 3.65877C6.41336 3.86714 6.2963 4.14976 6.2963 4.44444C6.2963 4.73913 6.41336 5.02174 6.62173 5.23012C6.83011 5.43849 7.11272 5.55556 7.40741 5.55556ZM8.47926 11.0326C8.62832 10.9579 8.74782 10.8351 8.81842 10.684C8.88902 10.533 8.90659 10.3625 8.86829 10.2002C8.82999 10.0379 8.73806 9.89333 8.60738 9.78978C8.47669 9.68623 8.31489 9.62981 8.14815 9.62963V7.03704C8.14808 6.91082 8.11576 6.78672 8.05426 6.6765C7.99276 6.56628 7.90412 6.4736 7.79674 6.40726C7.68937 6.34092 7.56682 6.30312 7.44074 6.29744C7.31465 6.29176 7.1892 6.3184 7.0763 6.37481L6.33556 6.74518C6.18649 6.81989 6.06699 6.94271 5.99639 7.09376C5.92579 7.24482 5.90822 7.41527 5.94652 7.57755C5.98482 7.73983 6.07675 7.88445 6.20744 7.98799C6.33813 8.09154 6.49993 8.14797 6.66667 8.14815V10.7407C6.66673 10.867 6.69905 10.9911 6.76055 11.1013C6.82205 11.2115 6.91069 11.3042 7.01807 11.3705C7.12545 11.4369 7.24799 11.4747 7.37408 11.4803C7.50017 11.486 7.62561 11.4594 7.73852 11.403L8.47926 11.0326Z" fill="#707070"/>
</svg>
