<svg width="512" height="512" viewBox="0 0 512 512" fill="none" xmlns="http://www.w3.org/2000/svg">
<path d="M256.615 200.083C287.497 200.083 312.531 225.118 312.532 256C312.532 286.883 287.498 311.917 256.615 311.917C225.733 311.916 200.699 286.882 200.699 256C200.699 225.118 225.734 200.084 256.615 200.083Z" fill="black"/>
<path fill-rule="evenodd" clip-rule="evenodd" d="M332.428 0C374.976 0.00228222 409.465 34.4936 409.469 77.0417V101.896H434.324C476.876 101.896 511.365 136.405 511.365 178.958C511.362 221.475 476.932 255.945 434.428 256C476.932 256.054 511.382 290.525 511.386 333.042C511.386 375.594 476.876 410.104 434.324 410.104H409.469V434.958C409.464 477.506 374.976 511.998 332.428 512C293.205 512 260.818 482.682 255.99 444.771C251.163 482.68 218.794 511.997 179.574 512C137.023 512 102.516 477.507 102.511 434.958V410.104H77.6569C35.1079 410.1 0.615728 375.591 0.615234 333.042C0.618948 290.525 35.0691 256.054 77.5736 256C35.0693 255.945 0.618288 221.475 0.615234 178.958C0.615233 136.408 35.1082 101.901 77.6569 101.896H102.511V77.0417C102.515 34.4922 137.023 0 179.574 0C218.79 0.00251207 251.158 29.3045 255.99 67.2083C260.822 29.3023 293.209 0.000302264 332.428 0ZM304.574 187.083C275.445 167.238 237.139 167.237 208.011 187.083L121.594 245.979C114.357 250.912 114.356 261.588 121.594 266.521L208.011 325.396C237.141 345.245 275.444 345.244 304.574 325.396L390.99 266.521C398.229 261.588 398.229 250.912 390.99 245.979L304.574 187.083Z" fill="black"/>
</svg>
