<svg width="20" height="20" viewBox="0 0 20 20" fill="none" xmlns="http://www.w3.org/2000/svg">
<path d="M10.0475 16.6667C8.19586 16.6667 6.62169 16.0184 5.32503 14.7217C4.02836 13.425 3.3803 11.8511 3.38086 10C3.38086 8.62781 3.77336 7.36809 4.55836 6.22087C5.34392 5.07254 6.4578 4.2467 7.90003 3.74337C8.07003 3.68392 8.21892 3.66837 8.34669 3.6967C8.47447 3.72504 8.5803 3.78031 8.66419 3.86254C8.74808 3.94476 8.80142 4.05031 8.82419 4.1792C8.84642 4.30865 8.82892 4.44448 8.77169 4.5867C8.66392 4.8517 8.58558 5.12142 8.53669 5.39587C8.4878 5.67031 8.46364 5.95504 8.46419 6.25004C8.46419 7.73504 8.98169 8.99531 10.0167 10.0309C11.0522 11.0659 12.3125 11.5834 13.7975 11.5834C14.1853 11.5834 14.54 11.5423 14.8617 11.46C15.1839 11.3778 15.4584 11.3111 15.685 11.26C15.8061 11.2378 15.917 11.2406 16.0175 11.2684C16.1181 11.2961 16.1992 11.345 16.2609 11.415C16.3247 11.4845 16.3681 11.57 16.3909 11.6717C16.4136 11.7734 16.4006 11.8892 16.3517 12.0192C15.9545 13.3803 15.1759 14.495 14.0159 15.3634C12.8559 16.2317 11.5331 16.6661 10.0475 16.6667Z" fill="currentColor"/>
</svg>
