<svg width="57" height="60" viewBox="0 0 57 60" fill="none" xmlns="http://www.w3.org/2000/svg">
<g filter="url(#filter0_d_62_16)">
<path d="M42.1497 15.0048C42.6874 15.0234 43.1107 15.4646 43.1109 16.0026L43.1145 25.6202C43.1148 26.2958 42.4634 26.779 41.8186 26.5772C39.0368 25.7063 32.5488 23.6857 30.0924 23.0096C29.7233 22.908 29.3367 23.0386 29.0925 23.3334L28.5978 23.9309C28.0597 24.5807 28.5162 25.5787 29.3593 25.6131C32.5036 25.7412 38.2658 26.1582 40.2587 27.5083C44.0881 30.1027 44.0856 35.151 43.0972 39.1687C41.9291 43.7162 37.5102 44.6614 33.487 44.9559C30.9147 45.1396 18.885 44.7639 15.3874 44.6489C14.8498 44.6312 14.4302 44.1912 14.4288 43.6533L14.4036 33.9764C14.4019 33.317 15.0276 32.8365 15.6642 33.0083L31.6026 37.3107C31.9623 37.4078 32.3462 37.2969 32.5987 37.0229L33.2408 36.3259C33.7867 35.7334 33.4523 34.7667 32.6567 34.6399C28.0216 33.9014 16.305 31.8377 15.0942 29.674C13.1071 26.2008 13.4533 20.4366 16.4245 17.5208C18.4965 15.4679 21.6309 14.7837 24.482 14.6589C27.6362 14.5219 38.795 14.8888 42.1497 15.0048Z" fill="#FFC413"/>
<path d="M24.6484 50.9129C28.2647 50.9949 32.2728 51.0574 33.9141 50.9402H33.9248C36.1054 50.7806 39.1506 50.414 41.959 49.0662C45.0496 47.5829 47.8161 44.9128 48.9082 40.6619C48.9133 40.6422 48.919 40.6221 48.9238 40.6024C49.5359 38.1146 49.9384 34.97 49.4004 31.8006C49.2181 30.7269 48.919 29.6264 48.4766 28.5457C48.884 27.6606 49.1146 26.6716 49.1143 25.618L49.1113 16.0008C49.1099 12.255 46.1493 9.13993 42.3574 9.00861C39.1671 8.8983 27.6778 8.51477 24.2217 8.66486H24.2197C20.9101 8.80983 15.9053 9.60572 12.2227 13.2391C9.44874 15.9612 8.22616 19.6196 7.92578 22.8299C7.67863 25.4721 7.99957 28.3672 9.07324 30.9832C8.64497 31.8883 8.40049 32.9046 8.40332 33.992L8.42871 43.6688L8.43848 44.0154C8.62275 47.5726 11.4851 50.5235 15.1904 50.6453L19.1543 50.7684C20.8247 50.8172 22.7503 50.8699 24.6484 50.9129Z" stroke="white" stroke-width="12" stroke-linejoin="round"/>
</g>
<defs>
<filter id="filter0_d_62_16" x="0.847656" y="2.63153" width="55.8037" height="56.3732" filterUnits="userSpaceOnUse" color-interpolation-filters="sRGB">
<feFlood flood-opacity="0" result="BackgroundImageFix"/>
<feColorMatrix in="SourceAlpha" type="matrix" values="0 0 0 0 0 0 0 0 0 0 0 0 0 0 0 0 0 0 127 0" result="hardAlpha"/>
<feOffset dy="1"/>
<feGaussianBlur stdDeviation="0.5"/>
<feComposite in2="hardAlpha" operator="out"/>
<feColorMatrix type="matrix" values="0 0 0 0 0 0 0 0 0 0 0 0 0 0 0 0 0 0 0.2 0"/>
<feBlend mode="normal" in2="BackgroundImageFix" result="effect1_dropShadow_62_16"/>
<feBlend mode="normal" in="SourceGraphic" in2="effect1_dropShadow_62_16" result="shape"/>
</filter>
</defs>
</svg>
