<svg xmlns="http://www.w3.org/2000/svg" width="104" height="104" viewBox="0 0 104 104" fill="none">
  <path fill-rule="evenodd" clip-rule="evenodd" d="M88.9083 18.0281C98.9172 23.807 102.346 36.6054 96.5677 46.6144C95.4813 48.4961 94.146 50.1444 92.6286 51.5435C100.667 57.8742 103.049 69.3115 97.7828 78.4327C92.5167 87.5539 81.4213 91.2089 71.9195 87.4128C71.4666 89.4271 70.7061 91.4085 69.6194 93.2907C63.8406 103.3 51.0421 106.729 41.0331 100.95C35.9477 98.0141 32.5632 93.2652 31.2195 87.9915C25.9806 89.4647 20.1756 88.9082 15.0902 85.9723C5.08112 80.1935 1.65166 67.3945 7.43042 57.3854C8.51701 55.5034 9.85169 53.8539 11.3694 52.4547C3.33156 46.1238 0.950085 34.6876 6.21596 25.5667C11.4819 16.4458 22.5775 12.7893 32.0791 16.585C32.5321 14.5715 33.2928 12.5913 34.3791 10.7098C40.1578 0.700741 52.956 -2.72888 62.965 3.04969C68.0502 5.98562 71.4355 10.7345 72.7792 16.008C78.0181 14.535 83.8231 15.0922 88.9083 18.0281Z" fill="#26A716" fill-opacity="0.32"/>
  <path d="M36.9111 50.6071L48.5183 62.2143L68.9468 41.7857" stroke="#26A716" stroke-width="5.57143" stroke-linecap="round" stroke-linejoin="round"/>
</svg>
