<svg width="56" height="56" viewBox="0 0 56 56" fill="none" xmlns="http://www.w3.org/2000/svg">
<path fill-rule="evenodd" clip-rule="evenodd" d="M35.9331 2.6416C42.0543 2.64168 47.0165 7.60435 47.0165 13.7261C47.0165 14.877 46.8405 15.9867 46.5151 17.0304C51.8787 17.8055 56 22.4212 56 27.9999C56 33.5786 51.8787 38.1938 46.5151 38.9689C46.8408 40.0128 47.0166 41.1232 47.0166 42.2744C47.0166 48.3961 42.0543 53.3587 35.933 53.3587C32.8229 53.3587 30.0129 52.0767 28 50.0134C25.9871 52.0766 23.1771 53.3588 20.0671 53.3588C13.9457 53.3588 8.98327 48.396 8.98327 42.2741C8.98328 41.1231 9.15866 40.0129 9.48427 38.9691C4.12091 38.1938 3.42725e-05 33.5785 0 28C-1.92856e-07 22.4214 4.121 17.8056 9.48443 17.0303C9.15898 15.9867 8.98351 14.8769 8.98351 13.7261C8.98351 7.60431 13.9455 2.64161 20.0668 2.64154C23.1768 2.64154 25.9871 3.9234 28 5.98653C30.0129 3.9234 32.8231 2.6416 35.9331 2.6416Z" fill="#FF4E54" fill-opacity="0.32"/>
<path d="M22.5002 33.5L33.5002 22.5M33.5 33.5L22.5 22.5" stroke="#FF4E54" stroke-width="3" stroke-linecap="round" stroke-linejoin="round"/>
</svg>
