<svg width="60" height="60" viewBox="0 0 60 60" fill="none" xmlns="http://www.w3.org/2000/svg">
<g filter="url(#filter0_dd_195_6763)">
<path d="M30.001 2.0459C37.7195 2.0459 43.9763 8.29897 43.9844 16.0156C51.7015 16.0232 57.9551 22.2811 57.9551 30C57.9551 37.7189 51.7015 43.9758 43.9844 43.9834C43.9768 51.7005 37.7198 57.9541 30.001 57.9541C22.2821 57.9541 16.0242 51.7005 16.0166 43.9834C8.29995 43.9753 2.04688 37.7185 2.04688 30C2.04688 22.2815 8.29995 16.0237 16.0166 16.0156C16.0247 8.29897 22.2824 2.0459 30.001 2.0459ZM30.001 9.0459C26.1435 9.0459 23.0168 12.1729 23.0166 16.0303V19.1348C23.0166 21.2778 21.2788 23.0156 19.1357 23.0156H16.0312C12.1739 23.0158 9.04688 26.1426 9.04688 30C9.04688 33.8574 12.1739 36.9842 16.0312 36.9844H19.1357C21.2788 36.9844 23.0166 38.7222 23.0166 40.8652V43.9697C23.0168 47.8271 26.1435 50.9541 30.001 50.9541C33.8584 50.9541 36.9852 47.8271 36.9854 43.9697V40.8652C36.9854 38.7222 38.7231 36.9844 40.8662 36.9844H43.9707C47.8281 36.9842 50.9551 33.8574 50.9551 30C50.9551 26.1426 47.8281 23.0158 43.9707 23.0156H40.8662C38.7231 23.0156 36.9854 21.2778 36.9854 19.1348V16.0303C36.9852 12.1729 33.8584 9.0459 30.001 9.0459ZM33.8818 23.4033C35.3816 23.4036 36.5974 24.6194 36.5977 26.1191C36.5977 31.9055 31.9064 36.5967 26.1201 36.5967C24.6203 36.5964 23.4046 35.3806 23.4043 33.8809C23.4043 28.0945 28.0955 23.4033 33.8818 23.4033Z" fill="white"/>
</g>
<path fill-rule="evenodd" clip-rule="evenodd" d="M9.04688 30C9.04687 26.1425 12.174 23.0153 16.0316 23.0153H19.1359C21.279 23.0153 23.0163 21.278 23.0163 19.1349V16.0306C23.0163 12.1731 26.1434 9.0459 30.001 9.0459C33.8585 9.0459 36.9857 12.1731 36.9857 16.0306V19.1349C36.9857 21.278 38.723 23.0153 40.8661 23.0153H43.9704C47.8279 23.0153 50.9551 26.1425 50.9551 30C50.9551 33.8575 47.8279 36.9847 43.9704 36.9847H40.8661C38.723 36.9847 36.9857 38.722 36.9857 40.8651V43.9694C36.9857 47.8269 33.8585 50.9541 30.001 50.9541C26.1434 50.9541 23.0163 47.8269 23.0163 43.9694V40.8651C23.0163 38.722 21.279 36.9847 19.1359 36.9847H16.0316C12.174 36.9847 9.04688 33.8575 9.04688 30ZM23.4043 33.8804C23.4043 35.3805 24.6204 36.5967 26.1206 36.5967C31.9069 36.5967 36.5976 31.9059 36.5976 26.1196C36.5976 24.6195 35.3815 23.4033 33.8814 23.4033C28.0951 23.4033 23.4043 28.0941 23.4043 33.8804Z" fill="#FFC413"/>
<defs>
<filter id="filter0_dd_195_6763" x="1.04688" y="0.0458984" width="57.9082" height="59.9082" filterUnits="userSpaceOnUse" color-interpolation-filters="sRGB">
<feFlood flood-opacity="0" result="BackgroundImageFix"/>
<feColorMatrix in="SourceAlpha" type="matrix" values="0 0 0 0 0 0 0 0 0 0 0 0 0 0 0 0 0 0 127 0" result="hardAlpha"/>
<feOffset dy="1"/>
<feGaussianBlur stdDeviation="0.5"/>
<feComposite in2="hardAlpha" operator="out"/>
<feColorMatrix type="matrix" values="0 0 0 0 0 0 0 0 0 0 0 0 0 0 0 0 0 0 0.2 0"/>
<feBlend mode="normal" in2="BackgroundImageFix" result="effect1_dropShadow_195_6763"/>
<feColorMatrix in="SourceAlpha" type="matrix" values="0 0 0 0 0 0 0 0 0 0 0 0 0 0 0 0 0 0 127 0" result="hardAlpha"/>
<feOffset dy="-1"/>
<feGaussianBlur stdDeviation="0.5"/>
<feComposite in2="hardAlpha" operator="out"/>
<feColorMatrix type="matrix" values="0 0 0 0 1 0 0 0 0 1 0 0 0 0 1 0 0 0 0.2 0"/>
<feBlend mode="normal" in2="effect1_dropShadow_195_6763" result="effect2_dropShadow_195_6763"/>
<feBlend mode="normal" in="SourceGraphic" in2="effect2_dropShadow_195_6763" result="shape"/>
</filter>
</defs>
</svg>
